<svg width="20" height="23" viewBox="0 0 20 23" fill="none" xmlns="http://www.w3.org/2000/svg">
<path d="M10 0C6.6916 0 4 2.72051 4 6.06445C4 9.40839 6.6916 12.1289 10 12.1289C13.3084 12.1289 16 9.40839 16 6.06445C16 2.72051 13.3084 0 10 0Z" fill="#F37944"/>
<path d="M17.4652 16.0908C15.8225 14.405 13.6448 13.4766 11.3333 13.4766H8.66667C6.3552 13.4766 4.17751 14.405 2.53484 16.0908C0.900222 17.7684 0 19.9827 0 22.3262C0 22.6983 0.298489 23 0.666667 23H19.3333C19.7015 23 20 22.6983 20 22.3262C20 19.9827 19.0998 17.7684 17.4652 16.0908Z" fill="#F37944"/>
</svg>
