<svg width="21" height="21" viewBox="0 0 21 21" fill="none" xmlns="http://www.w3.org/2000/svg">
<path d="M19.0209 1.97906C16.3821 -0.659715 12.0887 -0.659674 9.44994 1.9791C7.6475 3.78153 7.02144 6.43775 7.80188 8.84762L0.180264 16.4693C0.0648868 16.5846 0 16.7408 0 16.9043V20.3848C0 20.7248 0.275174 21 0.615236 21H4.09575C4.25915 21 4.41538 20.9351 4.53072 20.8197L5.4007 19.9491C5.53347 19.8164 5.59836 19.6301 5.57674 19.4433L5.46858 18.5084L6.76394 18.3864C7.05835 18.3588 7.29087 18.1262 7.31851 17.8318L7.4405 16.5365L8.37537 16.6452C8.54899 16.6686 8.72384 16.6103 8.85541 16.4938C8.98638 16.3767 9.06148 16.2096 9.06148 16.0342V14.8887H10.1862C10.3496 14.8887 10.5058 14.8238 10.6212 14.7084L12.1989 13.1515C14.6082 13.9326 17.2185 13.3537 19.0209 11.5501C21.6597 8.91131 21.6597 4.61784 19.0209 1.97906ZM17.2804 6.32959C16.5606 7.04937 15.3902 7.04937 14.6705 6.32959C13.9507 5.6098 13.9507 4.43942 14.6705 3.71964C15.3902 2.99986 16.5606 2.99986 17.2804 3.71964C18.0002 4.43942 18.0002 5.6098 17.2804 6.32959Z" fill="#F37944"/>
</svg>
